<?xml version="1.0" standalone="no"?><!DOCTYPE svg PUBLIC "-//W3C//DTD SVG 1.1//EN" "http://www.w3.org/Graphics/SVG/1.1/DTD/svg11.dtd"><svg t="1589631454090" class="icon" viewBox="0 0 1024 1024" version="1.1" xmlns="http://www.w3.org/2000/svg" p-id="1594" xmlns:xlink="http://www.w3.org/1999/xlink" width="200" height="200"><defs><style type="text/css"></style></defs><path d="M463.36 505.344H277.504c-21.504 0-38.4-17.408-38.4-38.4V270.848c0-21.504 17.408-38.4 38.4-38.4h185.856c21.504 0 38.4 17.408 38.4 38.4v196.096c0 20.992-17.408 38.4-38.4 38.4z m0-38.4V486.4v-19.456zM277.504 270.848v196.096h185.856V270.848H277.504zM463.36 819.2H277.504c-21.504 0-38.4-17.408-38.4-38.4v-196.096c0-21.504 17.408-38.4 38.4-38.4h185.856c21.504 0 38.4 17.408 38.4 38.4v196.096c0 21.504-17.408 38.4-38.4 38.4z m0-38.4v19.456-19.456z m-185.856-196.096v196.096h185.856v-196.096H277.504zM770.56 580.096h-185.856c-21.504 0-38.4-17.408-38.4-38.4V273.408c0-21.504 17.408-38.4 38.4-38.4h185.856c21.504 0 38.4 17.408 38.4 38.4v268.288c0 20.992-17.408 38.4-38.4 38.4z m0-38.912v19.456-19.456z m-185.856-267.776v268.288h185.856V273.408h-185.856zM770.56 819.2h-185.856c-21.504 0-38.4-17.408-38.4-38.4v-125.952c0-21.504 17.408-38.4 38.4-38.4h185.856c21.504 0 38.4 17.408 38.4 38.4v125.952c0 21.504-17.408 38.4-38.4 38.4z m0-38.4v19.456-19.456z m-185.856-125.952v125.952h185.856v-125.952h-185.856z" fill="#666666" p-id="1595"></path></svg>