<?xml version="1.0" standalone="no"?><!DOCTYPE svg PUBLIC "-//W3C//DTD SVG 1.1//EN" "http://www.w3.org/Graphics/SVG/1.1/DTD/svg11.dtd"><svg t="1589631382007" class="icon" viewBox="0 0 1024 1024" version="1.1" xmlns="http://www.w3.org/2000/svg" p-id="1113" xmlns:xlink="http://www.w3.org/1999/xlink" width="200" height="200"><defs><style type="text/css"></style></defs><path d="M821.248 944.64h-173.056c-12.288 0-22.016-9.728-22.016-22.016v-220.672l-210.432 1.536-1.024 219.136c0 12.288-9.728 22.016-22.016 22.016H219.648c-24.576 0-44.544-18.944-44.544-42.496l2.56-407.552H113.152c-20.992 0-38.912-11.776-45.568-30.208-6.144-16.896-0.512-34.816 13.824-46.592l406.016-332.288c22.528-18.432 57.856-18.432 80.384 0l406.016 332.288c14.336 11.776 19.456 30.208 13.824 46.592-6.656 18.432-24.576 30.208-45.568 30.208h-75.776v407.552c-0.512 23.552-20.48 42.496-45.056 42.496z m0.512-44.032V473.088c0-5.632 2.56-11.264 6.656-15.36 4.096-4.096 9.728-6.656 15.36-6.656h99.84l-404.48-330.752c-6.144-5.12-18.432-5.12-24.576 0L110.592 450.56c0.512 0 1.536 0.512 2.048 0.512h87.04c5.632 0 11.264 2.56 15.872 6.656 4.096 4.096 6.656 9.728 6.144 15.872l-2.56 427.52 151.552 0.512v-198.656c0-23.552 19.968-42.496 44.544-42.496h209.92c24.576 0 44.544 18.944 44.544 42.496v198.656l152.064-1.024c-0.512 0 0 0 0 0z" fill="#8a8a8a" p-id="1114"></path></svg>