<?xml version="1.0" standalone="no"?><!DOCTYPE svg PUBLIC "-//W3C//DTD SVG 1.1//EN" "http://www.w3.org/Graphics/SVG/1.1/DTD/svg11.dtd"><svg t="1589631462915" class="icon" viewBox="0 0 1024 1024" version="1.1" xmlns="http://www.w3.org/2000/svg" p-id="1780" xmlns:xlink="http://www.w3.org/1999/xlink" width="200" height="200"><defs><style type="text/css"></style></defs><path d="M527.36 546.816c-119.808 0-217.088-97.28-217.088-217.088S407.552 112.64 527.36 112.64s217.088 97.28 217.088 217.088-97.28 217.088-217.088 217.088z m0-392.704c-96.768 0-175.616 78.848-175.616 175.616S430.592 505.344 527.36 505.344s175.616-78.848 175.616-175.616c-0.512-96.768-78.848-175.616-175.616-175.616z" fill="#d81e06" p-id="1781"></path><path d="M898.56 937.472c-11.264 0-20.992-9.216-20.992-20.992 0-201.216-163.84-365.056-365.056-365.056s-365.056 163.84-365.056 365.056c0 11.264-9.216 20.992-20.992 20.992s-20.992-9.216-20.992-20.992c0-224.256 182.272-406.528 406.528-406.528s406.528 182.272 406.528 406.528c0.512 11.776-8.704 20.992-19.968 20.992z" fill="#d81e06" p-id="1782"></path></svg>